<svg id="layer_1" height="512" viewBox="0 0 200 200" width="512" xmlns="http://www.w3.org/2000/svg"><g fill="rgb(0,0,0)"><path d="m99.9955 0c-41.9861 0-76.1441 34.1579-76.1441 76.1531 0 61.4732 70.2222 120.3125 73.2153 122.7898 1.6963 1.4109 4.1744 1.4079 5.8666 0 2.9931-2.4773 73.2153-61.3166 73.2153-122.7898 0-41.9952-34.158-76.1531-76.1531-76.1531zm0 189.2914c-13.2709-11.825-66.9346-62.7717-66.9346-113.1383 0-36.9116 30.0322-66.9436 66.9346-66.9436 36.9207 0 66.9436 30.0321 66.9436 66.9436 0 50.3113-53.6636 101.3042-66.9436 113.1383z"/><path d="m130.1461 106.2954c-17.376 17.376-46.1566 16.5843-62.5008-2.3825-27.529-32.0345 4.3934-80.5103 44.1695-68.7193 5.8555 1.7589 3.1468 10.4846-2.6373 8.8209-32.3176-9.6175-57.1719 31.7094-32.8136 55.763 24.0717 24.3655 65.3884-.4706 55.7736-32.8033-.4687-1.6486-.0386-3.4265 1.1953-4.6179 2.4586-2.4587 6.6627-1.3773 7.6219 1.9649 4.1398 14.4242.537 30.6287-10.8086 41.9742z"/><path d="m130.152 52.5128c-4.1624 4.2862-10.7989-2.3501-6.5118-6.5124 4.162-4.286 10.7987 2.3505 6.5118 6.5124z"/></g></svg>